<svg xmlns="http://www.w3.org/2000/svg" xmlns:xlink="http://www.w3.org/1999/xlink" width="653" height="640" viewBox="0 0 653 640">
  <defs>
    <clipPath id="clip-path">
      <rect id="Rectangle_4" data-name="Rectangle 4" width="564" height="615" transform="translate(654.663 -0.418)" fill="#eeede9"/>
    </clipPath>
  </defs>
  <g id="Group_186" data-name="Group 186" transform="translate(-713)">
    <rect id="Rectangle_2" data-name="Rectangle 2" width="653" height="640" transform="translate(713)" fill="#eeede9"/>
    <g id="Mask_Group_1" data-name="Mask Group 1" transform="translate(147.337 25.418)" clip-path="url(#clip-path)">
      <g id="Group_22" data-name="Group 22" transform="translate(651.309 36.1)">
        <path id="Path_121" data-name="Path 121" d="M17.058,308.206c-4.907-.935-14.254-8.178-14.78-22.957-.475-13.374,10.808-21.206,10.808-21.206-12.852-4.206-9.347-29.208-9.347-29.208l22.9-136S0,105.09,0,81.316C0,60.753,22.666,66.827,22.666,66.827L7.711,38.555S26.872,6.075,29.91,1.869s5.374,0,5.374,0l23.6,39.256L44.16,66.595c24.772-4.206,24.3,16.356,24.3,16.356-.819,26.872-29.209,16.357-29.209,16.357l14.488,139.5s3.969,21.757-10.282,25c0,0,13.444,2.453,13.444,22.081,0,18.458-16.48,23.017-16.48,23.017,12.618,4.673,10.747,23.367,10.747,23.367L7.244,408.215l.234-82.25C6.777,310.311,17.058,308.206,17.058,308.206Zm1.225-234a4.939,4.939,0,1,1-8.23,2.954,8.674,8.674,0,1,0,8.23-2.954Zm32.065,15.8a8.671,8.671,0,0,0,1.588-17.2,4.939,4.939,0,1,1-8.23,2.954,8.671,8.671,0,0,0,6.649,14.243Zm-.577-50.776L34.349,15.254V40.307H18.458l15.891,22.9Zm-17.291,78.3-17.7,119.7s.875,18.05,14.537,18.05S42.835,237.4,42.835,237.4ZM29.317,295.3a13.514,13.514,0,0,0,2.468-26.8,7.692,7.692,0,1,1-12.831,4.6,13.513,13.513,0,0,0,10.359,22.2Z" transform="translate(30.355 79.986) rotate(-1)" fill="#ab804a"/>
        <path id="Path_123" data-name="Path 123" d="M206.009,84.171V219.9l45.134-58.987-7.614-27.263Z" transform="translate(116.541 47.616)" fill="#cbad77"/>
        <path id="Path_122" data-name="Path 122" d="M1843.644,1396.46s53.346-28.06,61.045-56.183c-.873-1.31,29.719,56,107.658,40.926,1.291-.249-55.259-97.079-55.259-97.079s-8.058-11.752-39.87-3.717-59.2,37.229-70.044,65.658-18.166,48.626-18.166,48.626l9.521,3.17Z" transform="translate(-1694.358 -1258.394)" fill="#cbad77"/>
        <g id="Group_21" data-name="Group 21" transform="translate(0)">
          <g id="Group_15" data-name="Group 15" transform="translate(214.537 275.285)">
            <path id="Path_62" data-name="Path 62" d="M1329.591-202.4c-5.954,0-22.138,46.571-27.909,45.882,38.206-96.477,107-168.868,151.145-208.17-11.035,16.9-24.046,7.84-24.046,29.963C1428.78-253.529,1410.783-202.4,1329.591-202.4Z" transform="translate(-1276.668 398.028)" fill="#fff"/>
            <path id="Path_63" data-name="Path 63" d="M1255.955-115.373c96.656,0,175.289-78.636,175.289-175.289a174.207,174.207,0,0,0-19.7-80.67c11.922-9.608,19.23-14.648,19.23-14.648l97.041,88.092-6.963,15.656c-43.8,25.652-162.04,214.973-162.04,214.973L1213.345-48.585a387.2,387.2,0,0,1,15.375-68.909,175.871,175.871,0,0,0,27.235,2.12Z" transform="translate(-1213.345 385.981)" fill="#ab804a"/>
          </g>
          <g id="Group_24" data-name="Group 24" transform="translate(287.522 10.771)">
            <g id="Group_17" data-name="Group 17" transform="translate(102.117 57.727)">
              <path id="Path_78" data-name="Path 78" d="M1254.412-446.417a4.982,4.982,0,0,1,4.982,4.982,4.98,4.98,0,0,1-4.981,4.98,4.981,4.981,0,0,1-4.983-4.98,4.982,4.982,0,0,1,4.982-4.982Z" transform="translate(-1176.527 558.578)" fill="#ab804a"/>
              <path id="Path_79" data-name="Path 79" d="M1260.68-455.372a4.981,4.981,0,0,1,4.981,4.982,4.98,4.98,0,0,1-4.981,4.98,4.98,4.98,0,0,1-4.983-4.98A4.982,4.982,0,0,1,1260.68-455.372Z" transform="translate(-1192.609 553.512)" fill="#ab804a"/>
              <path id="Path_80" data-name="Path 80" d="M1266.948-464.326a4.982,4.982,0,0,1,4.982,4.982,4.981,4.981,0,0,1-4.981,4.98,4.981,4.981,0,0,1-4.983-4.98A4.982,4.982,0,0,1,1266.948-464.326Z" transform="translate(-1208.691 548.447)" fill="#ab804a"/>
              <path id="Path_81" data-name="Path 81" d="M1272.321-473.281a4.982,4.982,0,0,1,4.982,4.982,4.98,4.98,0,0,1-4.981,4.98,4.981,4.981,0,0,1-4.983-4.98,4.982,4.982,0,0,1,4.982-4.982Z" transform="translate(-1222.475 543.381)" fill="#ab804a"/>
              <path id="Path_82" data-name="Path 82" d="M1278.589-482.235a4.982,4.982,0,0,1,4.982,4.982,4.98,4.98,0,0,1-4.981,4.98,4.98,4.98,0,0,1-4.983-4.98A4.982,4.982,0,0,1,1278.589-482.235Z" transform="translate(-1238.557 538.315)" fill="#ab804a"/>
              <path id="Path_83" data-name="Path 83" d="M1283.961-491.189a4.982,4.982,0,0,1,4.982,4.982,4.98,4.98,0,0,1-4.981,4.98,4.981,4.981,0,0,1-4.983-4.98A4.982,4.982,0,0,1,1283.961-491.189Z" transform="translate(-1252.342 533.249)" fill="#ab804a"/>
              <path id="Path_84" data-name="Path 84" d="M1289.334-500.144a4.982,4.982,0,0,1,4.982,4.981,4.98,4.98,0,0,1-4.981,4.98,4.98,4.98,0,0,1-4.982-4.98,4.982,4.982,0,0,1,4.981-4.981Z" transform="translate(-1266.127 528.184)" fill="#ab804a"/>
              <path id="Path_85" data-name="Path 85" d="M1295.6-509.1a4.982,4.982,0,0,1,4.982,4.982,4.98,4.98,0,0,1-4.981,4.98,4.981,4.981,0,0,1-4.983-4.98A4.982,4.982,0,0,1,1295.6-509.1Z" transform="translate(-1282.208 523.118)" fill="#ab804a"/>
              <path id="Path_86" data-name="Path 86" d="M1300.975-518.052a4.982,4.982,0,0,1,4.982,4.982,4.981,4.981,0,0,1-4.981,4.98,4.981,4.981,0,0,1-4.983-4.98A4.982,4.982,0,0,1,1300.975-518.052Z" transform="translate(-1295.993 518.052)" fill="#ab804a"/>
            </g>
            <g id="Group_18" data-name="Group 18" transform="translate(152.588 57.727)">
              <path id="Path_87" data-name="Path 87" d="M1249.935-455.372a4.982,4.982,0,0,1,4.982,4.982,4.98,4.98,0,0,1-4.981,4.98,4.981,4.981,0,0,1-4.983-4.98A4.982,4.982,0,0,1,1249.935-455.372Z" transform="translate(-1215.512 553.512)" fill="#ab804a"/>
              <path id="Path_88" data-name="Path 88" d="M1256.2-464.326a4.982,4.982,0,0,1,4.982,4.982,4.98,4.98,0,0,1-4.981,4.98,4.981,4.981,0,0,1-4.983-4.98,4.982,4.982,0,0,1,4.982-4.982Z" transform="translate(-1231.593 548.447)" fill="#ab804a"/>
              <path id="Path_89" data-name="Path 89" d="M1260.68-473.281a4.982,4.982,0,0,1,4.981,4.982,4.98,4.98,0,0,1-4.981,4.98,4.981,4.981,0,0,1-4.983-4.98A4.982,4.982,0,0,1,1260.68-473.281Z" transform="translate(-1243.081 543.381)" fill="#ab804a"/>
              <path id="Path_90" data-name="Path 90" d="M1264.262-482.235a4.982,4.982,0,0,1,4.982,4.982,4.98,4.98,0,0,1-4.981,4.98,4.981,4.981,0,0,1-4.983-4.98A4.982,4.982,0,0,1,1264.262-482.235Z" transform="translate(-1252.27 538.315)" fill="#ab804a"/>
              <path id="Path_91" data-name="Path 91" d="M1266.948-491.189a4.982,4.982,0,0,1,4.982,4.982,4.981,4.981,0,0,1-4.981,4.98,4.981,4.981,0,0,1-4.983-4.98A4.982,4.982,0,0,1,1266.948-491.189Z" transform="translate(-1259.163 533.249)" fill="#ab804a"/>
              <path id="Path_92" data-name="Path 92" d="M1267.844-500.144a4.982,4.982,0,0,1,4.982,4.981,4.981,4.981,0,0,1-4.981,4.98,4.981,4.981,0,0,1-4.983-4.98,4.982,4.982,0,0,1,4.981-4.981Z" transform="translate(-1261.459 528.184)" fill="#ab804a"/>
              <path id="Path_93" data-name="Path 93" d="M1268.739-509.1a4.982,4.982,0,0,1,4.982,4.982,4.98,4.98,0,0,1-4.981,4.98,4.981,4.981,0,0,1-4.982-4.98,4.982,4.982,0,0,1,4.982-4.982Z" transform="translate(-1263.758 523.118)" fill="#ab804a"/>
              <path id="Path_94" data-name="Path 94" d="M1268.739-508.091a4.981,4.981,0,0,1-4.981-4.981,4.982,4.982,0,0,1,4.981-4.981,4.982,4.982,0,0,1,4.982,4.982A4.98,4.98,0,0,1,1268.739-508.091Z" transform="translate(-1263.758 518.052)" fill="#ab804a"/>
            </g>
            <g id="Group_19" data-name="Group 19" transform="translate(0 0)">
              <path id="Path_95" data-name="Path 95" d="M1287.734-536.139a5.7,5.7,0,0,1,3.4-2.737,5.7,5.7,0,0,1,4.34.472,5.7,5.7,0,0,1,2.736,3.4,5.7,5.7,0,0,1-.473,4.339,5.7,5.7,0,0,1-3.4,2.737A5.7,5.7,0,0,1,1290-528.4a5.7,5.7,0,0,1-2.736-3.4A5.7,5.7,0,0,1,1287.734-536.139Z" transform="translate(-1172.327 563.871)" fill="#ab804a"/>
              <path id="Path_96" data-name="Path 96" d="M1300.167-535.79a5.7,5.7,0,0,1,3.4-2.737,5.7,5.7,0,0,1,4.34.473,5.7,5.7,0,0,1,2.265,7.74,5.7,5.7,0,0,1-7.74,2.265A5.7,5.7,0,0,1,1300.167-535.79Z" transform="translate(-1204.226 564.068)" fill="#ab804a"/>
              <path id="Path_97" data-name="Path 97" d="M1311.613-536.215a5.7,5.7,0,0,1,7.74-2.265,5.7,5.7,0,0,1,2.263,7.74,5.7,5.7,0,0,1-7.74,2.264A5.7,5.7,0,0,1,1311.613-536.215Z" transform="translate(-1233.603 563.828)" fill="#ab804a"/>
              <path id="Path_98" data-name="Path 98" d="M1322.574-537.538a5.7,5.7,0,0,1,7.74-2.265,5.7,5.7,0,0,1,2.265,7.74,5.7,5.7,0,0,1-7.74,2.264A5.7,5.7,0,0,1,1322.574-537.538Z" transform="translate(-1261.716 563.079)" fill="#ab804a"/>
              <path id="Path_99" data-name="Path 99" d="M1333.04-540.785a5.7,5.7,0,0,1,3.4-2.737,5.7,5.7,0,0,1,4.339.472,5.7,5.7,0,0,1,2.737,3.4,5.7,5.7,0,0,1-.472,4.34,5.7,5.7,0,0,1-3.4,2.737,5.7,5.7,0,0,1-4.339-.472,5.7,5.7,0,0,1-2.737-3.4,5.7,5.7,0,0,1,.472-4.34Z" transform="translate(-1288.567 561.242)" fill="#ab804a"/>
              <path id="Path_100" data-name="Path 100" d="M1342.521-543.91a5.7,5.7,0,0,1,3.4-2.737,5.7,5.7,0,0,1,4.34.472,5.7,5.7,0,0,1,2.265,7.74,5.7,5.7,0,0,1-7.74,2.265,5.7,5.7,0,0,1-2.264-7.74Z" transform="translate(-1312.894 559.474)" fill="#ab804a"/>
              <path id="Path_101" data-name="Path 101" d="M1352-548.826a5.7,5.7,0,0,1,7.74-2.265,5.7,5.7,0,0,1,2.263,7.74,5.7,5.7,0,0,1-3.4,2.737,5.7,5.7,0,0,1-4.34-.472,5.7,5.7,0,0,1-2.263-7.74Z" transform="translate(-1337.222 556.693)" fill="#ab804a"/>
              <path id="Path_102" data-name="Path 102" d="M1370.993-546.482a5.7,5.7,0,0,1-3.4,2.737,5.7,5.7,0,0,1-4.34-.472,5.7,5.7,0,0,1-2.737-3.4,5.7,5.7,0,0,1,.472-4.339,5.7,5.7,0,0,1,3.4-2.737,5.7,5.7,0,0,1,4.34.472,5.7,5.7,0,0,1,2.737,3.4,5.7,5.7,0,0,1-.472,4.34Z" transform="translate(-1360.286 554.923)" fill="#ab804a"/>
            </g>
          </g>
          <path id="Path_64" data-name="Path 64" d="M1241.73-329.717s-140.329,135.837-169,230.629c0,0,139.818,42.018,237.219,0,0,0,139.327-43.714,151.946-105.977C1461.9-205.066,1250.8-294.667,1241.73-329.717Z" transform="translate(-712.731 693.096)" fill="#0d304e"/>
          <path id="Path_65" data-name="Path 65" d="M1233.671-329.717s-140.333,135.837-169,230.624c0,0,139.818,42.017,237.219,0,0,0,139.327-43.714,151.946-105.977C1453.837-205.066,1242.742-294.667,1233.671-329.717Z" transform="translate(-692.054 693.096)" fill="#ab3229"/>
          <g id="Group_20" data-name="Group 20" transform="translate(139.949 22.019)">
            <path id="Path_109" data-name="Path 109" d="M1384.288-491.848c-13.243-12.384-20.116-30.886-20.428-54.99l4.207-.055c.3,22.891,6.705,40.363,19.053,51.936,17.207,16.123,40.365,15.114,40.594,15.1l.226,4.2c-.13.007-.643.031-1.478.031C1420.813-475.625,1400.446-476.74,1384.288-491.848Z" transform="translate(-1274.552 548.216)" fill="#ab804a"/>
            <path id="Path_110" data-name="Path 110" d="M1368.681-547.738l4.195.32c-3.994,52.536,39.232,56.98,41.076,57.144l-.364,4.191C1413.093-486.128,1364.368-490.986,1368.681-547.738Z" transform="translate(-1267.682 547.738)" fill="#ab804a"/>
            <path id="Path_111" data-name="Path 111" d="M1380.247-515.27c-5.346-5.207-7.129-13.766-5.3-25.441l4.156.651c-1.6,10.231-.235,17.553,4.061,21.757,5.543,5.424,14.429,3.915,14.516,3.9l.755,4.137a22.317,22.317,0,0,1-3.75.286C1390.844-509.984,1384.823-510.811,1380.247-515.27Z" transform="translate(-1261.31 551.714)" fill="#ab804a"/>
            <path id="Path_112" data-name="Path 112" d="M1412.766-507.55c-.031-.075-.068-.145-.1-.22l.154-.065a125.846,125.846,0,0,0,1.555-34.86l3.559-.306c-.016-.168-.04-.329-.054-.5l4.19-.37c2.356,26.657,11.378,46.235,26.825,58.193,21.868,16.935,49.475,12.576,49.752,12.531l.695,4.147a61.928,61.928,0,0,1-9.561.649c-10.566,0-28.084-2.119-43.42-13.969-14.488-11.2-23.645-28.536-27.3-51.6a123.351,123.351,0,0,1-1.964,25.755c23.382,52.408,85.469,47.543,86.1,47.485l3.175,4.189c-.106.01-4.7.153-7.74.153-15.148,0-61.2-3.606-83-45.231q-1.213,4.763-2.774,9.076c22.47,51.694,97.163,41.041,97.9,40.929l2.045,4.157a200.583,200.583,0,0,1-20.244,1.1,139.272,139.272,0,0,1-24.13-2.055c-27.449-4.872-47.282-18.231-57.688-38.75a89.752,89.752,0,0,1-22.31,31.322c-17.248,15.609-35.194,20.229-35.95,20.418l-1.02-4.08a89.583,89.583,0,0,0,34.148-19.455C1399.861-471.794,1408.915-488.091,1412.766-507.55Z" transform="translate(-1340.013 549.927)" fill="#ab804a"/>
            <path id="Path_113" data-name="Path 113" d="M1452.018-468.24c22.709-18.054,33.025-42.29,30.664-72.036l4.192-.333c3.09,38.9-15.824,62.618-32.238,75.661a109.234,109.234,0,0,1-36.609,19.1l-1.06-4.069a106.675,106.675,0,0,0,35.051-18.328Z" transform="translate(-1416.967 551.771)" fill="#ab804a"/>
            <path id="Path_114" data-name="Path 114" d="M1423.278-456.432l1.675-6.856a77.576,77.576,0,0,0,26.513-15.112c17.335-15,25.837-35.4,25.273-60.641l4.206-.094C1482.367-475.616,1423.843-456.589,1423.278-456.432Z" transform="translate(-1420.612 552.606)" fill="#ab804a"/>
            <path id="Path_115" data-name="Path 115" d="M1430.877-473.2l-1.038-4.076c.41-.105,40.885-10.965,39.544-59.114l4.2-.116C1475.018-485.032,1431.319-473.311,1430.877-473.2Z" transform="translate(-1423.535 554.093)" fill="#ab804a"/>
            <path id="Path_116" data-name="Path 116" d="M1437.867-488.364l-1.134-4.051c.823-.237,20.184-6.205,23.717-40.938l4.183.425C1460.793-495.158,1438.8-488.627,1437.867-488.364Z" transform="translate(-1425.341 555.874)" fill="#ab804a"/>
          </g>
          <g id="Group_23" data-name="Group 23" transform="translate(322.148 134.54)">
            <line id="Line_4" data-name="Line 4" y2="129.53" fill="none" stroke="#ab804a" stroke-miterlimit="10" stroke-width="4.69"/>
            <line id="Line_5" data-name="Line 5" y2="118.792" transform="translate(10.221 12.607)" fill="none" stroke="#ab804a" stroke-miterlimit="10" stroke-width="4.69"/>
            <line id="Line_6" data-name="Line 6" y2="96.357" transform="translate(20.547 17.284)" fill="none" stroke="#ab804a" stroke-miterlimit="10" stroke-width="4.69"/>
          </g>
          <g id="Group_16" data-name="Group 16">
            <g id="Path_66" data-name="Path 66" transform="translate(30.174 492.341)">
              <path id="Path_124" data-name="Path 124" d="M1502.891-94.659a416.781,416.781,0,0,1,6.849-51.831c3.091-16.139,7.13-33.182,12.007-50.653,4.3-15.411,8.508-28.452,11.574-37.472a368.212,368.212,0,0,0,.3,37.6,394.85,394.85,0,0,0,4.809,42.416c2.105,12.487,4.426,22.472,6,28.65,1.054,4.13,1.913,7.123,2.431,8.851a380.229,380.229,0,0,0-36.27,17.792C1507.206-97.375,1504.675-95.813,1502.891-94.659Z" transform="translate(-1500.684 248.729)" fill="#ab3229"/>
              <path id="Path_125" data-name="Path 125" d="M1505.354-97.025q1.935-1.174,4.473-2.628a376.585,376.585,0,0,1,34.857-17.186c-.511-1.774-1.183-4.206-1.957-7.242-1.585-6.214-3.919-16.256-6.036-28.81a396.943,396.943,0,0,1-4.833-42.631c-.477-8.158-.69-16.276-.64-24.3-2.266,7.126-4.787,15.44-7.343,24.6-4.862,17.419-8.89,34.407-11.97,50.493a423.882,423.882,0,0,0-6.551,47.714M1500.9-89.37c3.683-74.5,35.542-157.98,35.542-157.98-6.309,73.138,13.06,132.744,13.06,132.744C1513.75-99.184,1500.9-89.37,1500.9-89.37Z" transform="translate(-1500.899 247.351)" fill="#0d304e"/>
            </g>
            <path id="Path_67" data-name="Path 67" d="M1218.412-272.827s-30.377-24.389-22.249-145.6c0,0-19.424,5.729-13.966-16.334,0,0,12.417-65.649,50.181-92.307,0,0,39.908-30.3,93.861-11.825l9.608-22.912s28.084,22.172,65.037,31.042c0,0,36.954,10.346,70.954.739l-4.435,29.562s28.084.738,38.432-3.7c0,0-16.261,63.56,36.952,130.074l-62.816,25.13S1565.1-206.835,1835.92-99.886c0,0-7.01,19.933-35.05,49.841,0,0,3.737,38.322,2.8,54.212,0,0-219.647,68.231-314.983,68.231,0,0-63.557,56.08-136.461,0,0,0-28.04,21.5-60.754-8.412,0,0-166.37,32.713-243.013,63.557C1048.458,127.542,1029.926-73.14,1218.412-272.827Zm78.665-265.114s-62.155,5.141-84.47,42.294c0,0-36.569,76.876-19.748,68.464,0,0,12.968-4.557,12.618.468,0,0-16.357,169.642,54.679,176.184,0,0,96.271,8.881,137.863-120.572,0,0,1.871-3.275,0-11.683.005,0-89.723-121.507-100.939-155.155Zm41.126-12.149-4.674,12.077s46.008,29.013,76.643,34.189c31.81,5.374,51.873,2.8,51.873,2.8l2.337-21.03s-65.425,13.085-126.178-28.035Zm61.344,56.316a4.677,4.677,0,0,0-4.676-4.677,4.678,4.678,0,0,0-4.678,4.677,4.678,4.678,0,0,0,4.676,4.677,4.678,4.678,0,0,0,4.679-4.677Zm-2.344,18.226a4.678,4.678,0,0,0,4.676,4.677,4.678,4.678,0,0,0,4.678-4.677,4.678,4.678,0,0,0-4.676-4.677,4.678,4.678,0,0,0-4.677,4.677Zm14.02,22.427a4.678,4.678,0,0,0,4.676,4.677,4.678,4.678,0,0,0,4.678-4.677,4.678,4.678,0,0,0-4.676-4.677,4.678,4.678,0,0,0-4.675,4.683Zm110.758,81.9,12.268-4.206s-47.2-42.8-38.906-120.572c0,0-52.093,2.183-56.649,1.482,0,.007,69.618,117.342,83.288,123.3Zm-8.528,1.985c-37.153-39.256-85.522-123.846-85.522-123.846l-11.684-2.8c7.245,27.573,89.729,129.452,89.729,129.452ZM1426.7-431.221a4.677,4.677,0,0,0,4.678,4.677,4.676,4.676,0,0,0,4.676-4.677,4.677,4.677,0,0,0-4.677-4.677,4.676,4.676,0,0,0-3.308,1.372,4.676,4.676,0,0,0-1.368,3.312Zm16.834,21.237a4.677,4.677,0,0,0,4.677,4.677,4.676,4.676,0,0,0,4.677-4.678,4.677,4.677,0,0,0-4.676-4.676,4.678,4.678,0,0,0-3.309,1.372,4.679,4.679,0,0,0-1.368,3.312Zm18.16,21.354a4.677,4.677,0,0,0,4.676,4.677,4.678,4.678,0,0,0,4.678-4.677,4.678,4.678,0,0,0-4.676-4.677,4.678,4.678,0,0,0-4.676,4.684Zm22.9,24.3a4.678,4.678,0,0,0,4.677-4.677,4.678,4.678,0,0,0-4.676-4.677,4.678,4.678,0,0,0-4.678,4.677,4.677,4.677,0,0,0,1.367,3.314,4.678,4.678,0,0,0,3.312,1.373ZM1816.752-82.765l7.71-11.214c-67.3-23.83-128.982-50.818-243.945-139.495C1449.7-334.373,1351.289-518.78,1351.289-518.78l-11.917-6.469s37.313,113,204.776,274.847c143.8,138.985,272.606,167.644,272.606,167.644Zm-461.022,111c10.281-3.039,7.443-37.947,68.931-43.7,45.847-4.287,70.8,38.789,70.8,38.789s25.007-18.458,53.978,7.476c0,0,208.9-31.311,243.948-82.251l6.544-10.281s-228.526-86.925-328.07-216.609c0,0-160.529,128.283-203.29,310.543C1268.572,32.206,1345.448,31.271,1355.729,28.235ZM1248.48,37.348l14.02-2.8s4.206-142.07,204.228-319.656l-6.425-8.412s-94.384,75.691-158.457,186.443c-.3.524-.6-.343-.9.183-28.885-30.094-89.383-111.386-89.383-111.386l-5.139,8.881c2.956,10.986,75.443,96.847,89.312,113.2C1273.139-55.029,1255.312-9.772,1248.48,37.348Zm-87.863,21.03,11.214-5.608c-39.256-127.115-11.214-219.647-11.214-219.647l30.625-44.4c-41.345,130.855-1.407,259.3-1.407,259.3l9.1-4.6c-40.19-172.913,14.955-293.824,14.955-293.824-15.889,9.01-62.978,75.112-62.978,75.112C1118.779-46.306,1160.618,58.378,1160.618,58.378Zm-21.84,7.476s-30.034-105.617-14.145-164.037c0,0-47.2,63.09-54.679,204.692C1069.955,106.512,1091.453,82.679,1138.778,65.854Z" transform="translate(-1047.96 561.801)" fill="#0d304e"/>
          </g>
          <path id="Path_68" data-name="Path 68" d="M1303.971-330.284l69.554,85.059S1396.6-286.885,1513.9-409.56l14.955,21.965s-76.908,60.753-151.416,181.144l-84.131-104.334Z" transform="translate(-1125.047 647.927)" fill="#ab804a"/>
          <path id="Path_69" data-name="Path 69" d="M1445.063-95s11.214-80.85,47.2-132.424l-79.447-99.609s-29.146,89.962,0,235.228Z" transform="translate(-1255.296 694.616)" fill="#ab3229"/>
          <path id="Path_70" data-name="Path 70" d="M1093.274-333.707l8.2-25.487a3.824,3.824,0,0,0-1.106-4.031,3.824,3.824,0,0,0-4.135-.609l-27.612,12.743a3.823,3.823,0,0,0-2.211,3.187,3.823,3.823,0,0,0,1.715,3.479l19.417,12.744a3.824,3.824,0,0,0,3.371.409A3.824,3.824,0,0,0,1093.274-333.707Z" transform="translate(-342.57 673.594)" fill="#070707"/>
          <path id="Path_71" data-name="Path 71" d="M1132.561-354.72l-25.487-8.195a3.821,3.821,0,0,0-4.032,1.1,3.821,3.821,0,0,0-.608,4.136l12.743,27.612a3.822,3.822,0,0,0,3.187,2.211,3.822,3.822,0,0,0,3.479-1.715l12.743-19.417a3.823,3.823,0,0,0,.409-3.37A3.823,3.823,0,0,0,1132.561-354.72Z" transform="translate(-431.987 674.208)" fill="#070707"/>
          <path id="Path_72" data-name="Path 72" d="M1105.913-325.705l-8.2,25.487a3.822,3.822,0,0,0,1.105,4.032,3.822,3.822,0,0,0,4.136.608l27.613-12.743a3.823,3.823,0,0,0,2.211-3.187,3.823,3.823,0,0,0-1.714-3.479l-19.418-12.743a3.82,3.82,0,0,0-3.37-.41A3.821,3.821,0,0,0,1105.913-325.705Z" transform="translate(-422.449 693.865)" fill="#070707"/>
          <path id="Path_73" data-name="Path 73" d="M1067.144-304.549l25.487,8.195a3.823,3.823,0,0,0,4.032-1.1,3.823,3.823,0,0,0,.609-4.136l-12.743-27.613a3.821,3.821,0,0,0-3.187-2.211,3.823,3.823,0,0,0-3.479,1.715l-12.745,19.417a3.823,3.823,0,0,0-.408,3.371,3.822,3.822,0,0,0,2.435,2.367Z" transform="translate(-335.564 692.127)" fill="#070707"/>
          <path id="Path_74" data-name="Path 74" d="M1127.7-208.582s39.957-10.519,36.453-38.555c0,0,16.89-16.473,16.824-33.648,7.36,0,9.814-12.618,9.814-12.618s20.68-10.865,21.03-15.422,11.567-11.567-5.259-25.587-21.733-24.535-21.733-24.535-17.175-14.37-30.844,4.557l-13.67,18.226s-29.442,17.525-1.752,36.452l14.37,7.01s-.35,10.519,5.608,11.567c0,0-5.608,24.185-34.35,28.741a28.845,28.845,0,0,0-17.875,9.814s-21.38-3.155-17.525-45.215c0,0-31.193-9.814-22.427,64.141,0,0,5.954,25.937,18.577,29.092Z" transform="translate(-454.246 673.605)" fill="#234902"/>
          <path id="Path_75" data-name="Path 75" d="M1188.891-176.587s-48.15,8.37-72.861-.4c-5.855-2.9-7.485-2.494-6.911-6.968.876-6.834,10.165-6.66,10.165-6.66s13.786.38,36.277-6.338l-.336-.672s-51.773,11.361-52.674-2.558c0,0-2.487-6.525,20.238-7.811l25.279-3.358-.113-.6s-52.525,8.3-55.8-3.621c-.585-10.4,5.954-8.754,51.076-18.07l-.292-.788s-20.1,4.476-31.591,5.848c-9.251,1.1-25.048,1.995-18.18-12.156,0,0,33.3-43.465,82.366-18.577S1188.891-176.587,1188.891-176.587Z" transform="translate(-481.657 728.577)" fill="#0d304e" stroke="#ab804a" stroke-linecap="round" stroke-linejoin="round" stroke-width="1.791"/>
          <path id="Path_76" data-name="Path 76" d="M1116.459-169.987s34.348-51.173-16.825-98.839l-12.618,3.505s45.565,46.266,11.917,95.336Z" transform="translate(-400.941 727.542)" fill="#ab804a"/>
          <path id="Path_77" data-name="Path 77" d="M1458.493-92.291s11.015-15.726-10.169-28.9c0,0,27.358-28.535-5.9-50.242,0,0,51.276-41.16-1.256-70.544,0,0,53.76-36.45,12.4-85.054l-.955,3.267s26.016,42.39-11.446,75.48l-.554,10.748s33.284,24.068,1.217,57.719l1.368,17.487s19.776,16.169,4,33.683l2.113,13.6s15.124,8.482,4.258,23.245Z" transform="translate(-1296.05 694.616)" fill="#0d304e"/>
          <g id="eye_left" data-name="eye left" transform="translate(244.927 145.745)">
            <path id="Path_119" data-name="Path 119" d="M1391.145-445.459c7.228,0,13.109-5.216,13.109-11.628s-5.88-11.629-13.109-11.629-13.107,5.217-13.107,11.629S1383.917-445.459,1391.145-445.459Zm0-20.453c5.682,0,10.3,3.959,10.3,8.826s-4.623,8.824-10.3,8.824-10.3-3.957-10.3-8.824S1385.464-465.912,1391.145-465.912Z" transform="translate(-1378.037 468.717)" fill="#ab804a"/>
            <circle id="Ellipse_3" data-name="Ellipse 3" cx="6.685" cy="6.685" r="6.685" transform="translate(6.424 2.074)" fill="#ab804a"/>
          </g>
          <path id="Path_103" data-name="Path 103" d="M1292.271-181.472s1.921,11.065,9.007,10.891,10.905-8.832,17.427-7.8,3.431,10.986,13.388,9.612,2.653-13.82,12.015-12.7,9.611,9.328,18.194,6.381-1.786-11.3,9.578-13.992,14.709,7.145,19.971,1.426c7.372-8.011-3.664-6.956,1.085-15.878,5.552-10.437,15.282-.882,19.97-6.775,7.009-8.816-6.865-4.806.633-17.5,5.126-8.675,12.953-1.716,15.013-9.954s-9.239-6.641-5.148-15.219c4.216-8.842,13.623-4.664,15.321-12.649,2.225-10.454-12.318-6.236-9.824-14.013,4.542-14.191,14.218-7.1,11.962-17.168-2.93-13.069-10.33,2.741-15.051-9.955-5.084-13.67,17.678-12.53,3.432-22.313,0,0-10.984,1.716-12.016-7.553s6.357-11.173-1.8-17.257C1415.426-353.892,1316.789-259.557,1292.271-181.472Z" transform="translate(-1035.765 679.42)" fill="#ab804a"/>
          <path id="Path_104" data-name="Path 104" d="M1410.884-450.619s-22.777,24.068-54.672-1.786c0,0,11.334-17.168,38.38-11.882,0,0,18.109,3.746,23.951,7.711a79.081,79.081,0,0,0-45.039-18.16l.116-.992s28.741-7.939,56.549,24.535c0,0-5.492,3.389-15.891,0-7.9-2.574-37.269-17.175-52.225.468C1362.052-450.735,1382.606-439.168,1410.884-450.619Z" transform="translate(-1124.85 610.007)" fill="#0d304e"/>
          <path id="Path_105" data-name="Path 105" d="M1424.178-420.147s-1.752,11.214-13.67,3.855c0,0-2.017-7.36-8.237-3.243,0,0-6.484,5.346,5.082,6.748,0,0,15.421,8.938,21.38-7.01C1427.155-423.215,1424.178-420.147,1424.178-420.147Z" transform="translate(-1192.701 641.222)" fill="#0d304e"/>
          <path id="Path_106" data-name="Path 106" d="M1436.738-378.008s-11.13-6.947-15.336-14.312c-4.931-8.634,9.7-30.787,9.229-50.71s-6.776-31.6-6.776-31.6l-2.337,3.275s11.934,21.03-2.911,57.716c0,0-12.237,21.03,8.327,32.713,0,0,9.229,6.45,10.222,6.309C1439.854-374.992,1436.738-378.008,1436.738-378.008Z" transform="translate(-1224.975 611.117)" fill="#0d304e"/>
          <g id="eye_right" data-name="eye right" transform="translate(165.013 146.417)">
            <path id="Path_120" data-name="Path 120" d="M1442.184-445.7c7.228,0,13.108-5.061,13.108-11.293s-5.88-11.293-13.108-11.293-13.107,5.067-13.107,11.293S1434.957-445.7,1442.184-445.7Zm0-19.782c5.682,0,10.3,3.808,10.3,8.49s-4.622,8.489-10.3,8.489-10.3-3.808-10.3-8.489S1436.5-465.483,1442.184-465.483Z" transform="translate(-1429.077 468.288)" fill="#ab804a"/>
            <circle id="Ellipse_4" data-name="Ellipse 4" cx="6.685" cy="6.685" r="6.685" transform="translate(6.424 2.804)" fill="#ab804a"/>
          </g>
          <path id="Path_107" data-name="Path 107" d="M1421.205-455.205l.136-8.171s19.241-11.428,46.343,1.191l.934,15.018s-6.309,6.947-9.58,7.414a27.7,27.7,0,0,1,1.637-7.414c1.4-3.572-19.671,7.611-30.377-1.7,0,0,32.174,1.389,36.419-4.565C1466.717-453.431,1448.093-472.992,1421.205-455.205Z" transform="translate(-1265.069 614.799)" fill="#0d304e"/>
          <path id="Path_108" data-name="Path 108" d="M1398.073-461.122s3.037,13.786,8.412,15.422c0,0-3.121-8.508,0-9.58Z" transform="translate(-1166.712 618.758)" fill="#0d304e"/>
          <path id="Path_117" data-name="Path 117" d="M1453.312-400.027v9.814s-6.192-4.907-12.384-1.4c0,0-6.631,4.206-17.848,4.206a76.115,76.115,0,0,1-20.939-3.155s-6.134,5.433-8.762,4.907,5.432-12.618,5.432-12.618a8.479,8.479,0,0,0,6.169,2.246,8.48,8.48,0,0,0,5.923-2.831c6.192-6.134,9.444,1.657,14.177,1.519,8.061-.234,6.153-6.484,14.214-1.752a11.736,11.736,0,0,0,14.018-.935Z" transform="translate(-1205.362 652.648)" fill="#0d304e"/>
          <path id="Path_118" data-name="Path 118" d="M1399.191-379.859a38.533,38.533,0,0,1,7.6-2.815,20.2,20.2,0,0,1-7.887-4.366,1.4,1.4,0,0,1-.105-1.98,1.4,1.4,0,0,1,.972-.462,1.4,1.4,0,0,1,1.013.363c12.68,11.412,34.237-1.881,34.454-2.017a1.4,1.4,0,0,1,1.932.444,1.4,1.4,0,0,1-.442,1.932,54.533,54.533,0,0,1-13.32,5.7,25.962,25.962,0,0,1,7.615,3.267,1.4,1.4,0,0,1,.431,1.936,1.4,1.4,0,0,1-1.185.649,1.394,1.394,0,0,1-.751-.218c-12.909-8.213-28.861-.027-29.021.058a1.4,1.4,0,0,1-1.891-.589,1.4,1.4,0,0,1-.1-1.07,1.4,1.4,0,0,1,.686-.827Z" transform="translate(-1198.199 658.228)" fill="#ab804a"/>
        </g>
      </g>
    </g>
  </g>
</svg>
