<svg xmlns="http://www.w3.org/2000/svg" width="164.038" height="42.644" viewBox="0 0 164.038 42.644">
  <g id="Group_201" data-name="Group 201" transform="translate(-100.383 -4918.076)">
    <g id="logo" transform="translate(79.328 4882.159)">
      <g id="Group_165" data-name="Group 165" transform="translate(93.899 48.497)">
        <g id="Group_164" data-name="Group 164">
          <path id="Path_264" data-name="Path 264" d="M202.384,76.457a5.363,5.363,0,0,1-1.864-.319,4.206,4.206,0,0,1-1.508-.943,4.354,4.354,0,0,1-1-1.553,6.448,6.448,0,0,1,.007-4.293,4.684,4.684,0,0,1,1.018-1.6,4.358,4.358,0,0,1,1.508-1,4.914,4.914,0,0,1,1.827-.342,3.947,3.947,0,0,1,1.812.386,4.639,4.639,0,0,1,1.233.877l-1.144,1.4a4.162,4.162,0,0,0-.787-.55,2.186,2.186,0,0,0-1.039-.223,2.445,2.445,0,0,0-1.032.215,2.33,2.33,0,0,0-.81.617,2.809,2.809,0,0,0-.528.981,4.274,4.274,0,0,0-.186,1.307,3.571,3.571,0,0,0,.676,2.325,2.485,2.485,0,0,0,2.042.825,2.263,2.263,0,0,0,.579-.074,1.186,1.186,0,0,0,.461-.223V72.609h-1.6V70.827h3.536v4.457a4.157,4.157,0,0,1-1.337.832A4.842,4.842,0,0,1,202.384,76.457Z" transform="translate(-197.645 -66.415)" fill="#fff"/>
          <path id="Path_265" data-name="Path 265" d="M225.018,76.457a4.483,4.483,0,0,1-1.79-.349,3.885,3.885,0,0,1-1.389-1,4.6,4.6,0,0,1-.9-1.589,6.551,6.551,0,0,1-.32-2.125,6.485,6.485,0,0,1,.32-2.117,4.381,4.381,0,0,1,.9-1.56,3.866,3.866,0,0,1,1.389-.966,4.968,4.968,0,0,1,3.58,0,3.824,3.824,0,0,1,1.389.974,4.463,4.463,0,0,1,.9,1.567,6.443,6.443,0,0,1,.32,2.1,6.563,6.563,0,0,1-.32,2.125,4.617,4.617,0,0,1-.9,1.589,3.893,3.893,0,0,1-1.389,1A4.483,4.483,0,0,1,225.018,76.457Zm0-1.887a1.809,1.809,0,0,0,1.575-.854,4.092,4.092,0,0,0,.579-2.325,3.88,3.88,0,0,0-.579-2.273,1.926,1.926,0,0,0-3.149,0,3.881,3.881,0,0,0-.579,2.273,4.092,4.092,0,0,0,.579,2.325A1.809,1.809,0,0,0,225.018,74.57Z" transform="translate(-211.143 -66.415)" fill="#fff"/>
          <path id="Path_266" data-name="Path 266" d="M246.37,66.846h2.183V74.69h3.833v1.842H246.37Z" transform="translate(-226.271 -66.668)" fill="#fff"/>
          <path id="Path_267" data-name="Path 267" d="M265.024,66.846h2.733a6.629,6.629,0,0,1,2.005.283,4.027,4.027,0,0,1,1.53.869,3.832,3.832,0,0,1,.98,1.493,6.106,6.106,0,0,1,.342,2.154,6.235,6.235,0,0,1-.342,2.169,4.018,4.018,0,0,1-.966,1.522,3.96,3.96,0,0,1-1.493.9,5.945,5.945,0,0,1-1.938.3h-2.852Zm2.6,7.918a3.648,3.648,0,0,0,1.129-.164,2.084,2.084,0,0,0,.862-.527,2.468,2.468,0,0,0,.556-.958,4.648,4.648,0,0,0,.2-1.471,4.525,4.525,0,0,0-.2-1.448,2.339,2.339,0,0,0-.556-.936,2.032,2.032,0,0,0-.862-.5,4.016,4.016,0,0,0-1.129-.148h-.416v6.15Z" transform="translate(-237.23 -66.668)" fill="#fff"/>
          <path id="Path_268" data-name="Path 268" d="M287.892,66.846h6.06v1.842h-3.877v1.946h3.3v1.827h-3.3V74.69H294.1v1.842h-6.209Z" transform="translate(-250.665 -66.668)" fill="#fff"/>
          <path id="Path_269" data-name="Path 269" d="M307.626,66.846h2.243l2.525,4.813.95,2.14h.06q-.075-.772-.171-1.723a17.846,17.846,0,0,1-.1-1.812V66.846h2.08v9.686h-2.244L310.448,71.7l-.951-2.11h-.059q.074.8.171,1.723a17.231,17.231,0,0,1,.1,1.783v3.432h-2.079Z" transform="translate(-262.259 -66.668)" fill="#fff"/>
          <path id="Path_270" data-name="Path 270" d="M342.162,76.457a4.731,4.731,0,0,1-1.738-.319,4.081,4.081,0,0,1-1.433-.943,4.434,4.434,0,0,1-.973-1.553,5.964,5.964,0,0,1-.357-2.146,5.817,5.817,0,0,1,.372-2.147,4.857,4.857,0,0,1,1-1.6,4.2,4.2,0,0,1,1.456-1,4.571,4.571,0,0,1,1.753-.342,3.642,3.642,0,0,1,1.679.379,4.637,4.637,0,0,1,1.233.884l-1.159,1.4a3.7,3.7,0,0,0-.78-.557,1.97,1.97,0,0,0-.929-.215,2.084,2.084,0,0,0-.929.215,2.2,2.2,0,0,0-.757.617,3.042,3.042,0,0,0-.505.981,4.262,4.262,0,0,0-.186,1.307,3.72,3.72,0,0,0,.639,2.325,2.05,2.05,0,0,0,1.708.825,2.153,2.153,0,0,0,1.063-.26,3.3,3.3,0,0,0,.825-.646L345.3,75.03A3.934,3.934,0,0,1,342.162,76.457Z" transform="translate(-279.904 -66.415)" fill="#fff"/>
          <path id="Path_271" data-name="Path 271" d="M362.525,74.229h-2.956l-.594,2.3h-2.228l3.031-9.686h2.629l3.031,9.686h-2.317Zm-.445-1.709-.223-.891q-.208-.728-.4-1.545t-.386-1.575h-.06q-.178.773-.364,1.582t-.393,1.537l-.238.891Z" transform="translate(-291.117 -66.668)" fill="#fff"/>
          <path id="Path_272" data-name="Path 272" d="M378.528,68.688h-2.659V66.846h7.517v1.842h-2.659v7.844h-2.2Z" transform="translate(-302.351 -66.668)" fill="#fff"/>
        </g>
      </g>
      <g id="Group_166" data-name="Group 166" transform="translate(21.055 35.916)">
        <path id="Path_273" data-name="Path 273" d="M80.468,122.524c-1.269,2.176-2.547,3.071-6.248,4.012a8.931,8.931,0,0,0,6.282,2.906,9.307,9.307,0,0,0,6.282-2.906C83.364,125.785,81.479,124.7,80.468,122.524Z" transform="translate(-52.289 -86.798)" fill="#fff"/>
        <path id="Path_274" data-name="Path 274" d="M89.347,111.144h0Z" transform="translate(-61.169 -80.113)" fill="#fff"/>
        <path id="Path_275" data-name="Path 275" d="M89.332,111.144h0Z" transform="translate(-61.167 -80.113)" fill="#fff"/>
        <path id="Path_276" data-name="Path 276" d="M73.576,43.238c.231-2.49,1.365-4.41.575-5.978a2.411,2.411,0,0,0-3.864-.614c-1.807,1.97-4.756,4.945-8.434,4.508a10.418,10.418,0,0,1-3.59-1.452,24.58,24.58,0,0,0-8.976-1.969A23.526,23.526,0,0,0,40.271,39.7a10.412,10.412,0,0,1-3.59,1.452c-3.678.437-6.627-2.538-8.434-4.508a2.411,2.411,0,0,0-3.864.614c-.789,1.568.345,3.487.575,5.978.474,5.119-4.5,13.776-3.845,21.208.5,5.74,3.207,11.711,12.51,12.465a26.813,26.813,0,0,0,9.361-1.257c2.662-.838,5.669-4.5,6.282-5.567.563,1.036,3.737,4.638,6.282,5.567a23.577,23.577,0,0,0,9.361,1.257c9.3-.754,12.005-6.725,12.51-12.465C78.074,57.014,73.1,48.356,73.576,43.238ZM61.4,60.385a23.429,23.429,0,0,0,4.54-2.848A22.343,22.343,0,0,0,69.729,53.7a16.441,16.441,0,0,0,2.6-4.787,14.123,14.123,0,0,1-2.02,5.185,20.191,20.191,0,0,1-3.647,4.29A21.809,21.809,0,0,1,62,61.61a15.944,15.944,0,0,1-2.663,1.082l-.7.205-.724.143a10.177,10.177,0,0,1-1.494.161l-.618.056-.1-.681a7.863,7.863,0,0,1,.221-3.153A10.942,10.942,0,0,1,57.157,56.6,15.741,15.741,0,0,1,59,54.208a19.643,19.643,0,0,1,2.181-2.027,25.059,25.059,0,0,1,4.984-3.135A21.377,21.377,0,0,1,68.9,47.974a9.968,9.968,0,0,1,2.875-.5,11.626,11.626,0,0,0-2.732.886,23.166,23.166,0,0,0-2.535,1.328,28.629,28.629,0,0,0-4.579,3.366,18.271,18.271,0,0,0-3.579,4.259,8.268,8.268,0,0,0-1.271,4.4A13.919,13.919,0,0,0,61.4,60.385ZM39.948,57.311a18.271,18.271,0,0,0-3.579-4.259,28.629,28.629,0,0,0-4.579-3.366,23.167,23.167,0,0,0-2.535-1.328,11.628,11.628,0,0,0-2.731-.886,9.967,9.967,0,0,1,2.874.5,21.353,21.353,0,0,1,2.733,1.072,25.059,25.059,0,0,1,4.984,3.135A19.643,19.643,0,0,1,39.3,54.208a15.74,15.74,0,0,1,1.844,2.39,10.942,10.942,0,0,1,1.238,2.826,7.863,7.863,0,0,1,.221,3.153l-.1.681L41.88,63.2a10.177,10.177,0,0,1-1.494-.161l-.724-.143-.7-.205A15.925,15.925,0,0,1,36.3,61.61a21.788,21.788,0,0,1-4.663-3.218,20.181,20.181,0,0,1-3.647-4.29,14.123,14.123,0,0,1-2.02-5.185,16.441,16.441,0,0,0,2.6,4.787,22.358,22.358,0,0,0,3.793,3.833,23.454,23.454,0,0,0,4.54,2.848,13.918,13.918,0,0,0,4.319,1.323A8.272,8.272,0,0,0,39.948,57.311ZM23.605,63.919a29.035,29.035,0,0,0,4.87,3.808l.659.361a6.417,6.417,0,0,0,.656.356l.673.317.335.158.349.126a13.878,13.878,0,0,0,1.391.5l.708.207c.235.073.483.1.722.153l.721.163c.243.04.489.064.734.1l.736.094c.248.009.5.015.744.035s.5.038.746.048l.751-.015.754-.012.756-.055a49.322,49.322,0,0,0,6.15-.977l.044.105a25.85,25.85,0,0,1-6.065,1.757,17.753,17.753,0,0,1-6.311-.129,15.833,15.833,0,0,1-5.77-2.55,19.042,19.042,0,0,1-4.447-4.476ZM34.1,73.331a16.37,16.37,0,0,1-5.937-1.978,14.77,14.77,0,0,1-4.646-4.169l.092-.067a19.927,19.927,0,0,0,5,3.455c.463.183.915.377,1.363.577.47.152.933.315,1.4.459.48.108.948.253,1.426.361.485.075.967.17,1.452.234.488.046.976.115,1.466.147l1.478.025c.492-.024.989-.026,1.483-.066.246-.03.491-.065.739-.089s.5-.036.745-.08a26.876,26.876,0,0,0,5.9-1.637l.061.1A18.2,18.2,0,0,1,34.1,73.331Zm15.258-4.967-.023,0h-.216l-.018,0c-.2-.034-.686.115-1.245.158a2.935,2.935,0,0,1-1.725-.406c-.118-.078-.239-.156-.351-.239s-.212-.173-.313-.263l-.28-.278a1.845,1.845,0,0,1-.311-.439,3.322,3.322,0,0,1-.259-1.709,17.338,17.338,0,0,1,.526-2.822l.681-2.66a22.707,22.707,0,0,0,.81-5.272,7.345,7.345,0,0,0-1.452-4.777A8.618,8.618,0,0,0,40.8,47.031a22.926,22.926,0,0,0-5.331-.788c-.455-.025-.9-.033-1.368-.046a7.048,7.048,0,0,1-1.419-.177,5.392,5.392,0,0,1-2.5-1.331,8.06,8.06,0,0,1-1.622-2.269,21.979,21.979,0,0,1-1.035-2.557A21.834,21.834,0,0,0,28.74,42.32a7.918,7.918,0,0,0,1.683,2.093,4.94,4.94,0,0,0,2.363,1.093,6.467,6.467,0,0,0,1.313.088c.451-.013.921-.033,1.381-.034a23.058,23.058,0,0,1,5.558.58,11.621,11.621,0,0,1,2.68,1,7.932,7.932,0,0,1,2.307,1.807,7.267,7.267,0,0,1,1.426,2.6,10.134,10.134,0,0,1,.423,2.882,23.93,23.93,0,0,1-.746,5.592c-.205.9-.441,1.794-.655,2.675A16.237,16.237,0,0,0,46,65.273a2.09,2.09,0,0,0,.116.983.429.429,0,0,0,.086.118l.209.205.214.178c.073.053.146.1.218.147a1.491,1.491,0,0,0,.909.206,5.749,5.749,0,0,0,.6-.093,3.189,3.189,0,0,1,.864-.07h0l-.057,0h.121l-.064,0h0a3.774,3.774,0,0,1,.833.036,4.139,4.139,0,0,0,.589.047,2.066,2.066,0,0,0,.989-.27,4.039,4.039,0,0,0,.494-.312c.074-.057.178-.132.228-.174a.578.578,0,0,0,.111-.123,1.729,1.729,0,0,0,.22-.922,11.571,11.571,0,0,0-.362-2.542c-.2-.875-.432-1.758-.641-2.655a26.579,26.579,0,0,1-.853-5.548,10.288,10.288,0,0,1,.322-2.885A7.037,7.037,0,0,1,52.5,48.961a7.546,7.546,0,0,1,2.285-1.836,11.259,11.259,0,0,1,2.675-1A23.109,23.109,0,0,1,63,45.558c.459,0,.929.022,1.377.035a6.459,6.459,0,0,0,1.309-.092,4.939,4.939,0,0,0,2.352-1.1,7.927,7.927,0,0,0,1.676-2.09,21.926,21.926,0,0,0,1.215-2.45,21.966,21.966,0,0,1-1.031,2.55,8.084,8.084,0,0,1-1.614,2.265,5.391,5.391,0,0,1-2.49,1.337,7.048,7.048,0,0,1-1.415.182c-.467.014-.911.021-1.366.045a22.932,22.932,0,0,0-5.318.776,8.235,8.235,0,0,0-4.337,2.633,7.25,7.25,0,0,0-1.286,4.8,25.414,25.414,0,0,0,.915,5.258c.227.879.461,1.763.674,2.67a12.736,12.736,0,0,1,.413,2.876,3.045,3.045,0,0,1-.462,1.694,1.982,1.982,0,0,1-.345.385c-.124.105-.208.162-.314.245a5.414,5.414,0,0,1-.662.422,3.5,3.5,0,0,1-1.63.443C50.087,68.454,49.6,68.328,49.355,68.365Zm21.08,3.622c-.47.282-.946.564-1.436.82-.505.217-1.01.446-1.523.653-.526.166-1.057.325-1.591.466-.542.1-1.082.226-1.628.309-.551.039-1.1.1-1.65.117-.551-.013-1.1.009-1.65-.037-.546-.072-1.093-.124-1.632-.216-.537-.113-1.073-.226-1.6-.379A13.764,13.764,0,0,1,52.121,70.6l.061-.1a18.024,18.024,0,0,0,11.928,2.6,16.188,16.188,0,0,0,5.882-1.9,14.631,14.631,0,0,0,4.639-4.087l.092.067A11.845,11.845,0,0,1,70.435,71.986Zm.259-2.929a14.914,14.914,0,0,1-2.822,1.77,11.825,11.825,0,0,1-1.558.621l-.8.258c-.266.088-.544.132-.816.2l-.825.159c-.277.038-.555.059-.833.089l-.832.08c-.278,0-.556.009-.834,0s-.556-.007-.832-.02l-.825-.086c-.274-.031-.549-.054-.821-.092l-.806-.175a17.642,17.642,0,0,1-5.961-2.474l.044-.105a25.691,25.691,0,0,0,6.046,1.693,17.556,17.556,0,0,0,6.239-.182,15.659,15.659,0,0,0,5.72-2.468,18.906,18.906,0,0,0,4.453-4.4l.092.067A14.293,14.293,0,0,1,70.694,69.058Z" transform="translate(-21.055 -35.916)" fill="#fff"/>
      </g>
      <g id="Group_168" data-name="Group 168" transform="translate(119.771 61.99)">
        <g id="Group_167" data-name="Group 167">
          <path id="Path_277" data-name="Path 277" d="M261.131,99.693a3.843,3.843,0,0,1,2.3-.568,4.137,4.137,0,0,1,2.357.568,1.931,1.931,0,0,1,.825,1.7,3.1,3.1,0,0,1-.066.667,1.731,1.731,0,0,1-.3.621q-.231.324-.449.574a5.5,5.5,0,0,1-.746.66q-.792.634-1.664,1.261l-1.017.733-.806.581h3.169a1.75,1.75,0,0,0,1.294-.4,2.4,2.4,0,0,0,.541-1.241h.224l-.132,3.658h-6.206v-1.531l1.334-1.228a10.16,10.16,0,0,0,1.928-2.212,4.158,4.158,0,0,0,.568-2.139,3.5,3.5,0,0,0-.251-1.6.9.9,0,0,0-.845-.429,1,1,0,0,0-.832.3.96.96,0,0,0-.238.582,1.388,1.388,0,0,0,.08.488h.4a1.875,1.875,0,0,1,.106.667.863.863,0,0,1-.33.674,1.291,1.291,0,0,1-.872.284,1.04,1.04,0,0,1-.838-.35,1.309,1.309,0,0,1-.3-.878A1.736,1.736,0,0,1,261.131,99.693Z" transform="translate(-260.365 -99.125)" fill="#fff"/>
          <path id="Path_278" data-name="Path 278" d="M281.789,108.646a3.459,3.459,0,0,1-2.918-1.294,5.807,5.807,0,0,1-1-3.618,4.917,4.917,0,0,1,1.07-3.467,4.317,4.317,0,0,1,5.843-.006,6.682,6.682,0,0,1-.007,7.242A3.9,3.9,0,0,1,281.789,108.646Zm-1.208-5.255v1.175q0,1.281.02,1.809a6.51,6.51,0,0,0,.139,1.1,1.094,1.094,0,0,0,.382.733,1.15,1.15,0,0,0,.621.165,2.632,2.632,0,0,0,.535-.04.684.684,0,0,0,.317-.165,1.684,1.684,0,0,0,.231-.251,1.069,1.069,0,0,0,.152-.389q.059-.264.1-.488a5.042,5.042,0,0,0,.052-.66q.026-.845.026-1.7v-1.162a17.7,17.7,0,0,0-.191-3.348.985.985,0,0,0-1.089-.759,1,1,0,0,0-1.1.779A16.2,16.2,0,0,0,280.581,103.39Z" transform="translate(-270.652 -99.125)" fill="#fff"/>
          <path id="Path_279" data-name="Path 279" d="M300.055,99.693a3.843,3.843,0,0,1,2.3-.568,4.137,4.137,0,0,1,2.357.568,1.931,1.931,0,0,1,.825,1.7,3.1,3.1,0,0,1-.066.667,1.739,1.739,0,0,1-.3.621q-.231.324-.449.574a5.5,5.5,0,0,1-.746.66q-.793.634-1.664,1.261l-1.016.733-.806.581h3.169a1.75,1.75,0,0,0,1.294-.4,2.4,2.4,0,0,0,.541-1.241h.224l-.132,3.658h-6.206v-1.531l1.333-1.228a10.153,10.153,0,0,0,1.928-2.212,4.158,4.158,0,0,0,.568-2.139,3.5,3.5,0,0,0-.251-1.6.9.9,0,0,0-.845-.429,1,1,0,0,0-.832.3.962.962,0,0,0-.238.582,1.387,1.387,0,0,0,.08.488h.4a1.874,1.874,0,0,1,.106.667.862.862,0,0,1-.33.674,1.292,1.292,0,0,1-.872.284,1.04,1.04,0,0,1-.838-.35,1.31,1.31,0,0,1-.3-.878A1.735,1.735,0,0,1,300.055,99.693Z" transform="translate(-283.233 -99.125)" fill="#fff"/>
          <path id="Path_280" data-name="Path 280" d="M320.714,108.646a3.458,3.458,0,0,1-2.918-1.294,5.807,5.807,0,0,1-1-3.618,4.915,4.915,0,0,1,1.07-3.467,4.317,4.317,0,0,1,5.843-.006,6.682,6.682,0,0,1-.007,7.242A3.9,3.9,0,0,1,320.714,108.646Zm-1.208-5.255v1.175q0,1.281.019,1.809a6.59,6.59,0,0,0,.139,1.1,1.094,1.094,0,0,0,.383.733,1.15,1.15,0,0,0,.621.165,2.632,2.632,0,0,0,.535-.04.68.68,0,0,0,.317-.165,1.666,1.666,0,0,0,.231-.251,1.084,1.084,0,0,0,.152-.389q.059-.264.1-.488a4.953,4.953,0,0,0,.053-.66q.026-.845.026-1.7v-1.162a17.691,17.691,0,0,0-.191-3.348A.986.986,0,0,0,320.8,99.4a1,1,0,0,0-1.1.779A16.2,16.2,0,0,0,319.506,103.39Z" transform="translate(-293.52 -99.125)" fill="#fff"/>
        </g>
      </g>
      <g id="Florid_Vector_Pack_19" data-name="Florid Vector Pack 19" transform="translate(85.595 65.375)">
        <path id="Path_281" data-name="Path 281" d="M177.516,108.707l.334-.078c.218-.044.537-.124.944-.193.813-.158,1.975-.351,3.37-.521s3.021-.322,4.764-.423c.872-.052,1.772-.093,2.687-.116s1.845-.035,2.774-.043c.93.007,1.859.01,2.774.041s1.816.065,2.687.114c1.743.1,3.37.25,4.764.423s2.557.364,3.37.523c.407.07.726.151.944.195l.334.079-.334.079c-.218.044-.537.124-.944.195-.813.159-1.975.353-3.37.523s-3.021.323-4.764.423c-.871.049-1.772.094-2.687.114s-1.845.033-2.774.041c-.93-.008-1.859-.012-2.774-.043s-1.815-.064-2.687-.116c-1.743-.1-3.37-.251-4.764-.423s-2.557-.363-3.37-.521c-.407-.07-.726-.15-.944-.193Z" transform="translate(-177.516 -107.332)" fill="#fff"/>
        <path id="Path_282" data-name="Path 282" d="M345.181,108.707l.341-.078c.222-.044.548-.124.963-.193.83-.158,2.015-.351,3.437-.521s3.081-.322,4.859-.423c.889-.052,1.807-.093,2.74-.116s1.881-.035,2.829-.043c.948.007,1.9.01,2.829.041s1.852.065,2.74.114c1.777.1,3.437.25,4.858.423s2.607.364,3.437.523c.415.07.741.151.963.195l.341.079-.341.079c-.222.044-.548.124-.963.195-.829.159-2.014.353-3.437.523s-3.081.323-4.858.423c-.889.049-1.807.094-2.74.114s-1.881.033-2.829.041c-.948-.008-1.9-.012-2.829-.043s-1.852-.064-2.74-.116c-1.778-.1-3.437-.251-4.859-.423s-2.607-.363-3.437-.521c-.415-.07-.74-.15-.963-.193Z" transform="translate(-276.019 -107.332)" fill="#fff"/>
      </g>
    </g>
  </g>
</svg>
