<svg xmlns="http://www.w3.org/2000/svg" width="17.233" height="17.234" viewBox="0 0 17.233 17.234">
  <path id="Path_149" data-name="Path 149" d="M291.974,298.279a3.608,3.608,0,0,0-3.429,1.968,1.152,1.152,0,0,1-.659.58l-.011,0a.35.35,0,0,1-.453-.385,9.706,9.706,0,0,1,.394-1.637,1.143,1.143,0,0,1,.575-.653,3.613,3.613,0,1,0-3.262,0,1.131,1.131,0,0,1,.569.647,9.719,9.719,0,0,1,.4,1.641.35.35,0,0,1-.453.385l-.011,0a1.152,1.152,0,0,1-.658-.58,3.614,3.614,0,1,0,0,3.279,1.157,1.157,0,0,1,.661-.582l.01,0a.35.35,0,0,1,.453.385,9.682,9.682,0,0,1-1.988,4.588.4.4,0,0,0,.317.643h4.669a.4.4,0,0,0,.317-.643,9.682,9.682,0,0,1-1.988-4.588.35.35,0,0,1,.453-.385l.01,0a1.157,1.157,0,0,1,.661.582,3.612,3.612,0,1,0,3.429-5.248Z" transform="translate(-278.141 -291.323)" fill="#0d304e"/>
</svg>
