<svg xmlns="http://www.w3.org/2000/svg" width="32" height="75.308" viewBox="0 0 32 75.308">
  <g id="Group_196" data-name="Group 196" transform="translate(-445.028 -1846.178)">
    <g id="Group_54" data-name="Group 54" transform="translate(477.028 1921.485) rotate(180)">
      <text id="Q" transform="translate(0 42)" fill="#0d304e" font-size="39" font-family="SegoeUIBlack, Segoe UI"><tspan x="0" y="0">Q</tspan></text>
      <path id="Path_179" data-name="Path 179" d="M13.833,10.278A3.608,3.608,0,0,1,10.4,8.31a1.152,1.152,0,0,0-.659-.58l-.011,0a.35.35,0,0,0-.453.385,9.706,9.706,0,0,0,.394,1.637,1.143,1.143,0,0,0,.575.653,3.613,3.613,0,1,1-3.262,0,1.131,1.131,0,0,0,.569-.647,9.719,9.719,0,0,0,.4-1.641A.35.35,0,0,0,7.5,7.726l-.011,0a1.152,1.152,0,0,0-.658.58,3.614,3.614,0,1,1,0-3.279,1.157,1.157,0,0,0,.661.582l.01,0a.35.35,0,0,0,.453-.385A9.682,9.682,0,0,0,5.966.643.4.4,0,0,1,6.282,0h4.669a.4.4,0,0,1,.317.643A9.682,9.682,0,0,0,9.28,5.231a.35.35,0,0,0,.453.385l.01,0a1.157,1.157,0,0,0,.661-.582,3.612,3.612,0,1,1,3.429,5.248Z" transform="translate(26.532 75.308) rotate(180)" fill="#0d304e"/>
    </g>
  </g>
</svg>
