<svg xmlns="http://www.w3.org/2000/svg" width="32" height="75.007" viewBox="0 0 32 75.007">
  <g id="Group_192" data-name="Group 192" transform="translate(-9.702 -0.545)">
    <g id="Group_57" data-name="Group 57" transform="translate(42.335 75.552) rotate(180)">
      <g id="Group_55" data-name="Group 55" transform="translate(32.633 75.007) rotate(180)">
        <text id="Q" transform="translate(0 42)" fill="#ab3229" font-size="39" font-family="SegoeUIBlack, Segoe UI"><tspan x="0" y="0">Q</tspan></text>
      </g>
      <path id="Path_178" data-name="Path 178" d="M4.66,310.809A4.555,4.555,0,0,1,9.2,306.24a4.51,4.51,0,0,1,3.189,1.318.785.785,0,0,0,1.1,0,4.535,4.535,0,0,1,7.731,3.251h0c0,4.718-6.076,9.011-7.82,10.146a.847.847,0,0,1-.926,0c-1.744-1.135-7.82-5.427-7.82-10.146" transform="translate(27.36 321.092) rotate(180)" fill="#ab3229"/>
    </g>
  </g>
</svg>
