<svg xmlns="http://www.w3.org/2000/svg" width="23.146" height="31.194" viewBox="0 0 23.146 31.194">
  <g id="Group_199" data-name="Group 199" transform="translate(-265 -4641.402)">
    <path id="Subtraction_6" data-name="Subtraction 6" d="M-1213.427-1349.806h0a1.055,1.055,0,0,1-.775-.337c-.441-.479-10.8-11.831-10.8-19.56a11.451,11.451,0,0,1,11.573-11.3,11.452,11.452,0,0,1,11.573,11.3c0,7.731-10.357,19.08-10.8,19.56A1.054,1.054,0,0,1-1213.427-1349.806Zm-3.658-24.691v.26a2.236,2.236,0,0,1,.631.1.453.453,0,0,1,.273.3,2.554,2.554,0,0,1,.072.715v6.448a2.554,2.554,0,0,1-.072.715.452.452,0,0,1-.273.3,2.23,2.23,0,0,1-.631.1v.26c.946-.026,2.333-.039,4.238-.039,1.415,0,2.389.013,2.977.039a17.546,17.546,0,0,1-.091-1.976c0-.443.013-.811.039-1.093h-.3a4.22,4.22,0,0,1-.8,2.139,1.912,1.912,0,0,1-1.489.63h-.637a1.914,1.914,0,0,1-.585-.065.393.393,0,0,1-.247-.254,2.037,2.037,0,0,1-.065-.6v-3.276h.417c.87,0,1.4.577,1.586,1.716h.3c-.052-.791-.078-1.412-.078-1.846v-.624c0-.446.013-.857.04-1.222h-.3a3.175,3.175,0,0,1-.5,1.209,1.2,1.2,0,0,1-1.046.508h-.417v-3.225a2.032,2.032,0,0,1,.065-.6.393.393,0,0,1,.247-.254,1.914,1.914,0,0,1,.585-.065h.533a1.841,1.841,0,0,1,1.43.559,3.719,3.719,0,0,1,.7,1.95h.3a7.673,7.673,0,0,1-.039-.885c0-.556.031-1.2.091-1.923-.545.026-1.434.039-2.717.039C-1214.763-1374.458-1216.149-1374.471-1217.085-1374.5Z" transform="translate(1490 6022.403)" fill="#ab804a"/>
  </g>
</svg>
