<svg xmlns="http://www.w3.org/2000/svg" width="23.146" height="31.194" viewBox="0 0 23.146 31.194">
  <g id="Group_200" data-name="Group 200" transform="translate(-455 -4641.402)">
    <path id="Subtraction_5" data-name="Subtraction 5" d="M-1213.427-1349.806h0a1.055,1.055,0,0,1-.775-.337c-.441-.479-10.8-11.831-10.8-19.56a11.451,11.451,0,0,1,11.573-11.3,11.452,11.452,0,0,1,11.573,11.3c0,7.731-10.357,19.08-10.8,19.56A1.054,1.054,0,0,1-1213.427-1349.806Zm1.829-19.986v3.12a2.6,2.6,0,0,1-.071.715.456.456,0,0,1-.274.3,2.248,2.248,0,0,1-.63.1v.26c.49-.026,1.158-.039,2.04-.039.906,0,1.552.013,1.977.039v-.26a2.234,2.234,0,0,1-.637-.1.454.454,0,0,1-.266-.3,2.57,2.57,0,0,1-.071-.715v-6.448a2.57,2.57,0,0,1,.071-.715.455.455,0,0,1,.266-.3,2.228,2.228,0,0,1,.637-.1v-.26c-.43.026-1.077.039-1.976.039-.876,0-1.562-.013-2.04-.039v.26a2.254,2.254,0,0,1,.63.1.457.457,0,0,1,.274.3,2.6,2.6,0,0,1,.071.715v3.068h-3.445v-3.068a2.558,2.558,0,0,1,.072-.715.453.453,0,0,1,.266-.3,2.213,2.213,0,0,1,.636-.1v-.26c-.468.026-1.128.039-1.963.039-.94,0-1.612-.013-2.054-.039v.26a2.236,2.236,0,0,1,.631.1.453.453,0,0,1,.273.3,2.57,2.57,0,0,1,.071.715v6.448a2.57,2.57,0,0,1-.071.715.453.453,0,0,1-.273.3,2.234,2.234,0,0,1-.631.1v.26c.447-.026,1.119-.039,2.054-.039.854,0,1.5.013,1.963.039v-.26a2.215,2.215,0,0,1-.636-.1.453.453,0,0,1-.266-.3,2.558,2.558,0,0,1-.072-.715v-3.12Z" transform="translate(1680 6022.403)" fill="#ab804a"/>
  </g>
</svg>
