<svg xmlns="http://www.w3.org/2000/svg" width="27.446" height="29.377" viewBox="0 0 27.446 29.377">
  <g id="medal_1_" data-name="medal (1)" transform="translate(-16.831)">
    <g id="Group_46" data-name="Group 46" transform="translate(32.689 17.555)">
      <g id="Group_45" data-name="Group 45">
        <path id="Path_168" data-name="Path 168" d="M304.7,313.182l-3.369-7.225a12.457,12.457,0,0,1-8.127,5.222l2.82,6.048a.957.957,0,0,0,1.767-.077l1.446-3.971.3-.139,3.971,1.445A.958.958,0,0,0,304.7,313.182Z" transform="translate(-293.208 -305.957)" fill="#ab804a"/>
      </g>
    </g>
    <g id="Group_48" data-name="Group 48" transform="translate(20.024)">
      <g id="Group_47" data-name="Group 47" transform="translate(0)">
        <path id="Path_169" data-name="Path 169" d="M83.015,0a10.53,10.53,0,1,0,10.53,10.53A10.542,10.542,0,0,0,83.015,0Zm5.123,9.756-1.867,1.82.441,2.571a.958.958,0,0,1-1.389,1.009l-2.308-1.213-2.308,1.213a.958.958,0,0,1-1.389-1.009l.441-2.571-1.867-1.82a.958.958,0,0,1,.53-1.633L81,7.748,82.157,5.41a.957.957,0,0,1,1.716,0l1.154,2.338,2.581.375A.958.958,0,0,1,88.138,9.756Z" transform="translate(-72.485 0)" fill="#ab804a"/>
      </g>
    </g>
    <g id="Group_50" data-name="Group 50" transform="translate(16.831 17.555)">
      <g id="Group_49" data-name="Group 49" transform="translate(0)">
        <path id="Path_170" data-name="Path 170" d="M20.292,305.957l-3.369,7.225a.958.958,0,0,0,1.195,1.3l3.971-1.445.3.139,1.446,3.971a.957.957,0,0,0,1.767.077l2.82-6.048A12.456,12.456,0,0,1,20.292,305.957Z" transform="translate(-16.831 -305.957)" fill="#ab804a"/>
      </g>
    </g>
  </g>
</svg>
