<svg xmlns="http://www.w3.org/2000/svg" width="32.862" height="22.597" viewBox="0 0 32.862 22.597">
  <path id="Path_121" data-name="Path 121" d="M8.131,32.609S-.031,33.724,0,26.838c0-6.787,7.481-4.782,7.481-4.782L2.545,12.725S8.869,2,9.871.617s1.774,0,1.774,0l7.789,12.956-4.859,8.406c8.176-1.388,8.022,5.4,8.022,5.4-.147,6.475-8.32,5.422-8.32,5.422S8.082,32.6,8.131,32.609Zm-2.1-8.118a1.63,1.63,0,1,1-2.716.975,2.863,2.863,0,1,0,2.716-.975Zm10.583,5.214a2.862,2.862,0,0,0,.524-5.676,1.63,1.63,0,1,1-2.716.975,2.862,2.862,0,0,0,2.194,4.7Zm-.19-16.758-5.09-7.913V13.3H6.092l5.245,7.558Z" transform="translate(32.862 0) rotate(90)" fill="#ab804a"/>
</svg>
