<svg xmlns="http://www.w3.org/2000/svg" width="31.877" height="32.455" viewBox="0 0 31.877 32.455">
  <g id="sprinkle-stars" transform="translate(-4.182)">
    <path id="Path_162" data-name="Path 162" d="M10.3,0,8.412,3.834l-4.23.615,3.06,2.984L6.52,11.645,10.3,9.656l3.784,1.99-.722-4.213,3.06-2.984L12.2,3.834Z" fill="#ae8551"/>
    <path id="Path_163" data-name="Path 163" d="M220.434,253.947l-2.481-5.027-2.481,5.027-5.547.806,4.013,3.912-.947,5.525,4.962-2.609,4.962,2.609-.948-5.525,4.013-3.912Z" transform="translate(-191.54 -231.736)" fill="#ae8551"/>
    <path id="Path_164" data-name="Path 164" d="M359.03,8.46l1.08-2.631L362.44,4.2,359.81,3.115,358.176.786,357.1,3.417l-2.33,1.632L357.4,6.131Z" transform="translate(-326.381 -0.732)" fill="#ae8551"/>
    <path id="Path_165" data-name="Path 165" d="M68.976,218.814l-.6,2.116-1.644,1.459,2.115.6,1.46,1.645.6-2.116,1.643-1.459-2.115-.6Z" transform="translate(-58.235 -203.708)" fill="#ae8551"/>
    <path id="Path_166" data-name="Path 166" d="M25.048,329.187l-.991,3.008-3.008.992,3.008.991.991,3.008.992-3.008,3.008-.991-3.008-.992Z" transform="translate(-15.703 -306.461)" fill="#ae8551"/>
    <path id="Path_167" data-name="Path 167" d="M240.653,130.367l2.689-1.673,2.945,1.169-1.673-2.69,1.169-2.944-2.689,1.673-2.945-1.169,1.673,2.69Z" transform="translate(-219.677 -115.653)" fill="#ae8551"/>
  </g>
</svg>
