<svg xmlns="http://www.w3.org/2000/svg" width="31.223" height="27.715" viewBox="0 0 31.223 27.715">
  <path id="user-list" d="M30.812,20.121a1.576,1.576,0,0,0-1.165-.514H1.576A1.576,1.576,0,0,0,.007,21.328L1.5,37.417a1.576,1.576,0,0,0,1.569,1.43H28.149a1.576,1.576,0,0,0,1.569-1.43l1.5-16.089A1.575,1.575,0,0,0,30.812,20.121Zm-2.621-3.448a1.182,1.182,0,0,1-1.182,1.182H4.213a1.182,1.182,0,0,1,0-2.364h22.8A1.182,1.182,0,0,1,28.192,16.673Zm-3.12-4.36a1.182,1.182,0,0,1-1.182,1.182H7.333a1.182,1.182,0,0,1,0-2.364H23.889A1.182,1.182,0,0,1,25.071,12.313Z" transform="translate(0 -11.131)" fill="#505050"/>
</svg>
